<svg xmlns="http://www.w3.org/2000/svg" width="800" height="800" viewBox="0 0 800 800">
<defs><linearGradient id="g" x1="0" y1="0" x2="1" y2="1"><stop offset="0" stop-color="#f2c98a"/><stop offset="1" stop-color="#f2a565"/></linearGradient><linearGradient id="gs" x1="0" y1="0" x2="1" y2="1"><stop offset="0" stop-color="#f7f3e9"/><stop offset="1" stop-color="#87bed4"/></linearGradient><filter id="n"><feTurbulence type="fractalNoise" baseFrequency="0.9" numOctaves="2"/><feColorMatrix type="matrix" values="0 0 0 0 1  0 0 0 0 1  0 0 0 0 1  0 0 0 0.06 0"/></filter></defs>
<rect width="800" height="800" fill="#123c4c"/>
<circle cx="400" cy="392" r="252" fill="none" stroke="url(#gs)" stroke-width="1.4" stroke-dasharray="2 10" opacity="0.75"/>
<g fill="none" stroke="url(#g)" stroke-width="11" stroke-linecap="round" stroke-linejoin="round">
<path d="M248,458 A 152,132 0 0 1 552,458"/>
<path d="M296,340 q 14,-44 30,-4"/>
<path d="M348,322 q 14,-46 30,-4"/>
<path d="M402,316 q 14,-46 30,-4"/>
<path d="M456,330 q 14,-44 30,-2"/>
<path d="M212,492 q 188,58 376,0"/>
</g>
<text x="400" y="726" text-anchor="middle" font-family="Arial" font-size="24" letter-spacing="10" fill="#f7f3e9" opacity="0.55">DUMPLING</text>
<text x="400" y="758" text-anchor="middle" font-family="Arial" font-size="15" letter-spacing="5" fill="#f7f3e9" opacity="0.3">KEEP A GOLDEN HEART</text>
<rect width="800" height="800" filter="url(#n)" opacity="0.5"/>
</svg>
